<?xml version="1.0" encoding="utf-8"?>
<!-- Generator: Adobe Illustrator 24.0.1, SVG Export Plug-In . SVG Version: 6.00 Build 0)  -->
<svg version="1.1" id="Layer_1" xmlns="http://www.w3.org/2000/svg" xmlns:xlink="http://www.w3.org/1999/xlink" x="0px" y="0px"
	 viewBox="0 0 2000 317.1" style="enable-background:new 0 0 2000 317.1;" xml:space="preserve">
<style type="text/css">
	.st0{fill:#172B4D;}
	.st1{fill:#14AFDE;}
</style>
<g>
	<path class="st0" d="M745.5,74.1c-11.7-6.8-24.8-10.2-39.5-10.2c-14.7,0-27.9,3.4-39.6,10.2c-11.8,6.8-21,16.4-27.7,28.6
		c-6.7,12.3-10.1,26.1-10.1,41.6c0,15.5,3.5,29.3,10.5,41.6c7,12.3,16.8,21.8,29.4,28.8c12.6,6.9,27,10.4,43.2,10.4
		c12.7,0,24.3-2.2,34.8-6.6c10.5-4.4,19.3-10.8,26.4-19.3l-12.1-13.9c-6,6.8-13.2,12-21.4,15.5c-8.2,3.5-17.3,5.3-27.1,5.3
		c-17.5,0-31.9-5.1-43.4-15.2c-11.4-10.1-17.8-23.4-19-39.9h132.6l0.3-6.6c0-15.7-3.3-29.6-9.9-41.7
		C766.3,90.4,757.2,80.9,745.5,74.1z M650,135c1.4-15.7,7.3-28.4,17.6-38.1c10.3-9.7,23.1-14.6,38.4-14.6c15.5,0,28.4,4.9,38.7,14.6
		c10.3,9.7,16.2,22.4,17.6,38.1H650z"/>
	<path class="st0" d="M950.7,96.4c-6.4-10.4-14.9-18.5-25.5-24.1c-10.5-5.6-22.4-8.4-35.7-8.4c-14.9,0-28.3,3.4-40.4,10.1
		c-12.1,6.7-21.5,16.2-28.3,28.5c-6.8,12.3-10.2,26.2-10.2,41.9c0,15.9,3.4,29.9,10.2,42.2c6.8,12.3,16.2,21.7,28.2,28.5
		c11.9,6.7,25.5,10.1,40.5,10.1c12.9,0,24.5-2.7,34.8-8c10.3-5.3,18.8-13.1,25.5-23.3V282h21.4V65.1h-20.5V96.4z M942.4,176.5
		c-5.1,9.4-12.2,16.7-21.1,21.8c-8.9,5.1-18.9,7.7-30,7.7c-11.3,0-21.3-2.6-30.3-7.7c-8.9-5.1-16-12.4-21.1-21.8
		c-5.1-9.4-7.7-20.2-7.7-32.2s2.6-22.7,7.7-32.1c5.1-9.3,12.1-16.6,21.1-21.8c8.9-5.2,19-7.8,30.3-7.8c11,0,21,2.6,30,7.8
		c8.9,5.2,16,12.5,21.1,21.8c5.1,9.3,7.7,20,7.7,32.1S947.5,167.1,942.4,176.5z"/>
	<path class="st0" d="M1152.2,148.2c0,18.1-4.8,32.2-14.5,42.3c-9.6,10.1-22.8,15.2-39.5,15.2c-15.3,0-27-4.3-35.3-13
		c-8.2-8.6-12.4-21.3-12.4-38V65.1h-21.4V157c0,22.3,6,39.2,17.9,50.8c11.9,11.6,28.3,17.3,49,17.3c12.7,0,23.9-2.7,33.7-8
		c9.8-5.3,17.6-12.8,23.2-22.4v28.9h20.5V65.1h-21.4V148.2z"/>
	<path class="st0" d="M1244.4,0c-4.4,0-8.1,1.5-11.1,4.5s-4.5,6.5-4.5,10.5c0,4.2,1.5,7.8,4.5,10.8s6.7,4.5,11.1,4.5
		c4.4,0,8.1-1.5,11.1-4.5c3-3,4.5-6.7,4.5-11.1c0-4-1.5-7.5-4.5-10.4C1252.5,1.5,1248.8,0,1244.4,0z"/>
	<rect x="1233.6" y="65.1" class="st0" width="21.4" height="158.5"/>
	<rect x="1314.6" class="st0" width="21.4" height="223.5"/>
	<path class="st0" d="M1406.5,0c-4.4,0-8.1,1.5-11.1,4.5s-4.5,6.5-4.5,10.5c0,4.2,1.5,7.8,4.5,10.8s6.7,4.5,11.1,4.5
		c4.4,0,8.1-1.5,11.1-4.5c3-3,4.5-6.7,4.5-11.1c0-4-1.5-7.5-4.5-10.4C1414.6,1.5,1410.9,0,1406.5,0z"/>
	<rect x="1395.7" y="65.1" class="st0" width="21.4" height="158.5"/>
	<path class="st0" d="M1598.7,74c-12.1-6.7-25.5-10.1-40.4-10.1c-12.9,0-24.5,2.7-34.8,8c-10.3,5.3-18.8,13.1-25.5,23.4V0h-21.4
		v223.5h20.5v-31.3c6.4,10.7,14.9,18.8,25.5,24.4c10.5,5.6,22.4,8.4,35.7,8.4c14.9,0,28.3-3.4,40.4-10.2
		c12.1-6.8,21.5-16.4,28.3-28.6c6.8-12.2,10.2-26.2,10.2-41.9c0-15.7-3.4-29.6-10.2-41.9C1620.2,90.2,1610.8,80.7,1598.7,74z
		 M1608.2,176.5c-5.1,9.4-12.2,16.7-21.2,21.8c-9,5.1-19.1,7.7-30.1,7.7c-11.3,0-21.3-2.6-30.3-7.7c-8.9-5.1-16-12.4-21.1-21.8
		c-5.1-9.4-7.7-20.2-7.7-32.2s2.6-22.8,7.7-32.2c5.1-9.4,12.1-16.7,21.1-21.8c8.9-5.1,19-7.7,30.3-7.7c11,0,21.1,2.6,30.1,7.7
		c9,5.1,16.1,12.4,21.2,21.8c5.1,9.4,7.7,20.2,7.7,32.2S1613.3,167.1,1608.2,176.5z"/>
	<path class="st0" d="M1701.4,96.1v-31H1681v158.5h21.4v-80.7c0-18.5,4.7-32.8,14.2-43.1c9.4-10.2,22.5-15.4,39.2-15.4l5.1,0.3V63.9
		c-14.7,0-27,2.7-36.9,8.1C1713.9,77.4,1706.5,85.5,1701.4,96.1z"/>
	<path class="st0" d="M1810.2,0c-4.4,0-8.1,1.5-11.1,4.5c-3,3-4.5,6.5-4.5,10.5c0,4.2,1.5,7.8,4.5,10.8c3,3,6.7,4.5,11.1,4.5
		c4.4,0,8.1-1.5,11.1-4.5c3-3,4.5-6.7,4.5-11.1c0-4-1.5-7.5-4.5-10.4C1818.3,1.5,1814.6,0,1810.2,0z"/>
	<rect x="1799.4" y="65.1" class="st0" width="21.4" height="158.5"/>
	<path class="st0" d="M1983.4,79.4c-11-10.3-26.9-15.5-47.6-15.5c-12.5,0-24.3,1.9-35.6,5.6c-11.3,3.7-20.9,9-28.9,15.8l9.6,16
		c6.6-5.8,14.6-10.4,23.8-13.7c9.2-3.3,18.9-5,28.9-5c14.7,0,25.8,3.6,33.4,10.7c7.6,7.1,11.4,17.5,11.4,31.2v9.6h-50.3
		c-21.3,0-36.8,4.1-46.5,12.4c-9.7,8.2-14.6,19.1-14.6,32.5c0,13.9,5.2,25,15.7,33.4c10.4,8.4,24.5,12.7,42.2,12.7
		c12.9,0,24-2.3,33.3-6.9c9.3-4.6,16.4-11,21.2-19.3v24.7h20.5v-98.2C2000,105,1994.5,89.7,1983.4,79.4z M1978.6,175.9
		c-4.2,10.4-10.7,18.4-19.3,24c-8.6,5.5-19,8.3-31,8.3c-12.7,0-22.5-2.7-29.5-8c-7-5.3-10.5-12.6-10.5-21.8
		c0-18.9,13.6-28.3,40.7-28.3h49.7V175.9z"/>
	<polygon class="st1" points="0,219.1 9.4,228.4 67.2,286.3 97.5,317.1 111.3,303.3 99.1,286.3 57.3,228.4 352.5,228.4 352.5,197.6 
		0,197.6 	"/>
	<polygon class="st0" points="285.3,31.1 255,0.2 241.3,14 253.4,31.1 295.2,88.9 0,88.9 0,119.7 352.5,119.7 352.5,98.3 
		343.1,88.9 	"/>
</g>
</svg>
