<?xml version="1.0" encoding="utf-8"?>
<!-- Generator: Adobe Illustrator 26.2.1, SVG Export Plug-In . SVG Version: 6.00 Build 0)  -->
<svg version="1.1" id="Layer_1" xmlns="http://www.w3.org/2000/svg" xmlns:xlink="http://www.w3.org/1999/xlink" x="0px" y="0px"
	 viewBox="0 0 32 32" style="enable-background:new 0 0 32 32;" xml:space="preserve">
<style type="text/css">
	.st0{fill:none;stroke:#172B4D;stroke-width:0.9688;stroke-miterlimit:10;}
	.st1{fill:#172B4D;}
	.st2{fill:#FFFFFF;stroke:#172B4D;stroke-width:0.3579;stroke-miterlimit:10;}
	.st3{fill:#19AFDC;}
</style>
<g>
	<polygon class="st0" points="5.39,9.87 16,3.74 26.61,9.87 26.61,22.13 16,28.26 5.39,22.13 	"/>
	<circle class="st1" cx="16" cy="28.26" r="2"/>
	<circle class="st1" cx="16" cy="4" r="2"/>
	<circle class="st1" cx="26.5" cy="22" r="2"/>
	<circle class="st1" cx="5.5" cy="22" r="2"/>
	<circle class="st1" cx="26.5" cy="10" r="2"/>
	<circle class="st1" cx="5.5" cy="10" r="2"/>
	<polyline class="st0" points="5.5,10 15.5,16.5 26.5,10 	"/>
	<line class="st0" x1="16" y1="28.26" x2="15.71" y2="16.48"/>
	<g>
		<circle class="st2" cx="16" cy="16" r="5.73"/>
		<g>
			<polygon class="st3" points="12.01,17.24 12.23,17.46 13.56,18.85 14.26,19.6 14.58,19.26 14.3,18.85 13.33,17.46 20.14,17.46 
				20.14,16.72 12.01,16.72 			"/>
			<polygon class="st1" points="18.59,13.11 17.89,12.37 17.58,12.7 17.86,13.11 18.82,14.5 12.01,14.5 12.01,15.24 20.14,15.24 
				20.14,14.73 19.92,14.5 			"/>
		</g>
	</g>
</g>
</svg>
